<?xml version="1.0" encoding="UTF-8" standalone="no"?>
<!-- Created with Inkscape (http://www.inkscape.org/) -->

<svg
   xmlns:dc="http://purl.org/dc/elements/1.1/"
   xmlns:cc="http://creativecommons.org/ns#"
   xmlns:rdf="http://www.w3.org/1999/02/22-rdf-syntax-ns#"
   xmlns:svg="http://www.w3.org/2000/svg"
   xmlns="http://www.w3.org/2000/svg"
   xmlns:xlink="http://www.w3.org/1999/xlink"
   xmlns:sodipodi="http://sodipodi.sourceforge.net/DTD/sodipodi-0.dtd"
   xmlns:inkscape="http://www.inkscape.org/namespaces/inkscape"
   height="74.7808"
   id="svg2"
   version="1.1"
   width="180.06787"
   inkscape:export-filename="C:\Users\sr41756\Desktop\gatekeeper.png"
   inkscape:export-xdpi="61.620094"
   inkscape:export-ydpi="61.620094"
   inkscape:version="0.92.1 r15371"
   sodipodi:docname="gatekeeper-logo-v2-individual.svg"
   viewBox="0 0 168.81362 70.107002">
  <defs
     id="defs4">
    <linearGradient
       id="linearGradient3822">
      <stop
         style="stop-color:#008f00;stop-opacity:1;"
         id="stop3824"
         offset="0" />
      <stop
         style="stop-color:#ffffff;stop-opacity:1;"
         id="stop3826"
         offset="1" />
    </linearGradient>
    <linearGradient
       id="linearGradient3795">
      <stop
         style="stop-color:#2f9600;stop-opacity:1;"
         id="stop3797"
         offset="0" />
      <stop
         style="stop-color:#ffffff;stop-opacity:1;"
         id="stop3799"
         offset="1" />
    </linearGradient>
    <linearGradient
       gradientTransform="matrix(-0.53167848,0,0,0.71443954,433.89361,175.30088)"
       gradientUnits="userSpaceOnUse"
       id="linearGradient4158"
       x1="275.55096"
       x2="269.84589"
       y1="168.02112"
       y2="158.97551"
       inkscape:collect="always"
       xlink:href="#linearGradient3822" />
    <linearGradient
       gradientTransform="matrix(0.85440613,0,0,0.85440613,65.07178,151.79594)"
       gradientUnits="userSpaceOnUse"
       id="linearGradient4164"
       x1="275.55096"
       x2="269.84589"
       y1="168.02112"
       y2="158.97551"
       inkscape:collect="always"
       xlink:href="#linearGradient3822" />
    <linearGradient
       gradientTransform="translate(59.366541,135.15201)"
       gradientUnits="userSpaceOnUse"
       id="linearGradient4239"
       x1="289.23138"
       x2="281.02191"
       y1="151.37416"
       y2="143.24072"
       inkscape:collect="always"
       xlink:href="#linearGradient3795" />
    <linearGradient
       gradientTransform="matrix(0.85440613,0,0,0.85440613,64.357366,151.40627)"
       gradientUnits="userSpaceOnUse"
       id="linearGradient3083"
       x1="289.23138"
       x2="281.02191"
       y1="151.37416"
       y2="143.24072"
       inkscape:collect="always"
       xlink:href="#linearGradient3795" />
    <linearGradient
       gradientUnits="userSpaceOnUse"
       id="linearGradient3866"
       x1="338.54877"
       x2="328.88077"
       y1="282.63428"
       y2="274.08105"
       inkscape:collect="always"
       xlink:href="#linearGradient3795" />
    <linearGradient
       gradientUnits="userSpaceOnUse"
       id="linearGradient3875"
       x1="335.63193"
       x2="328.57141"
       y1="281.57361"
       y2="274.83234"
       inkscape:collect="always"
       xlink:href="#linearGradient3795" />
    <linearGradient
       gradientUnits="userSpaceOnUse"
       id="linearGradient3891"
       x1="335.63193"
       x2="328.57141"
       y1="281.57361"
       y2="274.83234"
       inkscape:collect="always"
       xlink:href="#linearGradient3795" />
    <linearGradient
       gradientUnits="userSpaceOnUse"
       id="linearGradient3905"
       x1="335.63193"
       x2="328.57141"
       y1="281.57361"
       y2="274.83234"
       inkscape:collect="always"
       xlink:href="#linearGradient3795" />
    <linearGradient
       gradientUnits="userSpaceOnUse"
       id="linearGradient3907"
       x1="335.63193"
       x2="328.57141"
       y1="281.57361"
       y2="274.83234"
       inkscape:collect="always"
       xlink:href="#linearGradient3795" />
  </defs>
  <sodipodi:namedview
     bordercolor="#666666"
     borderopacity="1.0"
     fit-margin-bottom="0"
     fit-margin-left="0"
     fit-margin-right="0"
     fit-margin-top="0"
     id="base"
     pagecolor="#ffffff"
     showgrid="true"
     inkscape:current-layer="layer1"
     inkscape:cx="-143.94745"
     inkscape:cy="-51.455713"
     inkscape:document-units="px"
     inkscape:pageopacity="0.0"
     inkscape:pageshadow="2"
     inkscape:window-height="1017"
     inkscape:window-maximized="1"
     inkscape:window-width="1920"
     inkscape:window-x="-8"
     inkscape:window-y="-8"
     inkscape:zoom="1.5943078">
    <inkscape:grid
       empspacing="5"
       enabled="true"
       id="grid3163"
       originx="-323.37071"
       originy="0.00022339684"
       snapvisiblegridlinesonly="true"
       type="xygrid"
       visible="true"
       spacingx="0.99999994"
       spacingy="1" />
  </sodipodi:namedview>
  <metadata
     id="metadata7">
    <rdf:RDF>
      <cc:Work
         rdf:about="">
        <dc:format>image/svg+xml</dc:format>
        <dc:type
           rdf:resource="http://purl.org/dc/dcmitype/StillImage" />
        <dc:title></dc:title>
      </cc:Work>
    </rdf:RDF>
  </metadata>
  <g
     id="layer1"
     transform="translate(-476.13888,-261.99287)"
     inkscape:groupmode="layer"
     inkscape:label="Layer 1">
    <g
       style="font-style:normal;font-variant:normal;font-weight:normal;font-stretch:normal;font-size:40px;line-height:125%;font-family:'Myriad Pro';-inkscape-font-specification:'Myriad Pro';letter-spacing:0px;word-spacing:0px;fill:#4e534e;fill-opacity:1;stroke:none"
       id="Crown"
       transform="matrix(0.13434475,0,0,0.13434475,475.82988,261.52186)">
      <circle
         style="fill:#4e534e;fill-opacity:1"
         cx="105"
         cy="112"
         id="circle4"
         r="8.6000004" />
      <circle
         style="fill:#4e534e;fill-opacity:1"
         cx="182"
         cy="95"
         id="circle6"
         r="8.6000004" />
      <path
         style="fill:#4e534e;fill-opacity:1"
         d="m 412.7,39.522 c 10.872,16.794 18.063,35.141 3,55 -13.565,-4.295 -18.154,-20.093 -21,-38 l -26,47 c 16.31,-7.443 31.082,-15.262 42,-1.522 -16.575,22.95 -62.557,49.67 -76.406,11.272 1.448,-2.147 2.57,-4.648 3.219,-7.406 1.362,-5.795 0.396,-11.507 -2.25,-15.75 11.794,-30.673 27.828,-20.376 36.906,-5.719 0.546,-16.316 2.55,-38.864 -32.094,-17.406 7.512,-17.968 4.772,-48.205 1.656,-48.938 -3.117,-0.732 -19.065,25.129 -20.344,44.563 -21.458,-34.644 -29.721,-13.57 -36.5,1.281 14.657,-9.078 33.636,-11.153 30.531,21.563 -4.259,2.62 -7.7,7.298 -9.063,13.094 -0.644,2.739 -0.77,5.448 -0.438,8 C 266.7,120 256.7,110 236.7,70 V 52.506 c 2,-0.506 2,-1.506 2.5,-3.5 19.124,-0.11 25.949,11.557 33.5,23.516 v -53 C 265.26,33.125 256.668,42.855 239.2,42.006 238.7,40 238.7,39 236.7,38.506 239.41,20.26 246.881,12.265 264.7,3.522 L 231,3.506 v 0 h -0.15 -0.15 v 0 L 197,3.522 c 17.819,8.744 25.29,16.738 28,34.984 -2,0.494 -2,1.494 -2.5,3.5 -17.468,0.849 -26.061,-8.881 -33.5,-22.484 v 53 C 196.55,60.563 203.376,48.897 222.5,49.006 223,51 223,52 225,52.506 V 70 c -20,40 -30,50 -69.219,36.553 0.332,-2.552 0.206,-5.261 -0.438,-8 -1.362,-5.795 -4.803,-10.474 -9.063,-13.094 -3.105,-32.715 15.874,-30.641 30.531,-21.563 -6.78,-14.851 -15.042,-35.925 -36.5,-1.281 -1.279,-19.433 -17.227,-45.295 -20.344,-44.563 -3.117,0.733 -5.856,30.97 1.656,48.938 -34.644,-21.458 -32.64,1.09 -32.094,17.406 9.079,-14.657 25.112,-24.954 36.906,5.719 -2.646,4.243 -3.612,9.955 -2.25,15.75 0.648,2.758 1.77,5.259 3.219,7.406 C 113.557,151.67 67.575,124.95 51,102 61.918,88.26 76.69,96.079 93,103.522 l -26,-47 c -2.846,17.907 -7.435,33.705 -21,38 -15.063,-19.859 -7.873,-38.206 3,-55 l -35,20 67,115 c 43.636,-28.458 96.889,-41.869 149.7,-41.018 v 0.002 c 0.05,-0.001 0.1,0 0.149,-0.001 0.051,0.001 0.101,0 0.15,0.001 v -0.002 c 52.811,-0.851 106.065,12.56 149.7,41.018 l 67,-115 z"
         id="path8"
         inkscape:connector-curvature="0" />
      <circle
         style="fill:#4e534e;fill-opacity:1"
         cx="356.70001"
         cy="112"
         id="circle10"
         r="8.6000004" />
      <circle
         style="fill:#4e534e;fill-opacity:1"
         cx="279.70001"
         cy="95"
         id="circle12"
         r="8.6000004" />
    </g>
    <path
       style="font-style:normal;font-variant:normal;font-weight:normal;font-stretch:normal;font-size:40px;line-height:125%;font-family:'Myriad Pro';-inkscape-font-specification:'Myriad Pro';letter-spacing:0px;word-spacing:0px;fill:#4e534e;fill-opacity:1;stroke:none"
       d="m 506.86352,283.89321 h -0.0403 -21.18617 v 47.15501 h 2.28386 c 0,0 3.35862,-8.86675 3.35862,-9.53848 0,-0.18701 -0.26869,-0.26869 -1.07476,-0.26869 v -4.7022 h 4.70207 v 4.97089 h -1.07476 l 3.49296,9.0011 3.49297,-9.0011 h -1.07476 v -4.97089 h 4.70207 v 4.97089 h -1.07476 l 3.45266,8.89739 v 0.10371 l 0.02,-0.052 0.0202,0.052 v -0.10371 l 3.45266,-8.89739 h -1.07476 v -4.97089 h 4.70207 v 4.97089 h -1.07476 l 3.49296,9.0011 3.49296,-9.0011 h -1.07475 v -4.97089 h 4.70206 v 4.7022 c -0.80607,0 -1.07475,0.0817 -1.07475,0.26869 0,0.67173 3.35861,9.53848 3.35861,9.53848 h 2.28386 v -47.15501 h -21.18603 z m -18.94261,31.43654 c -0.66742,0 -1.2091,-0.54154 -1.2091,-1.2091 0,-0.66729 0.54168,-1.20911 1.2091,-1.20911 0.66743,0 1.2091,0.54182 1.2091,1.20911 0,0.66756 -0.54167,1.2091 -1.2091,1.2091 z m 0,-9.53848 c -0.66742,0 -1.2091,-0.54154 -1.2091,-1.2091 0,-0.66729 0.54168,-1.2091 1.2091,-1.2091 0.66743,0 1.2091,0.54181 1.2091,1.2091 0,0.66756 -0.54167,1.2091 -1.2091,1.2091 z m 0,-9.26965 c -0.66742,0 -1.2091,-0.54168 -1.2091,-1.2091 0,-0.66743 0.54168,-1.20911 1.2091,-1.20911 0.66743,0 1.2091,0.54168 1.2091,1.20911 0,0.66742 -0.54167,1.2091 -1.2091,1.2091 z m 0,-9.0011 c -0.66742,0 -1.2091,-0.54168 -1.2091,-1.2091 0,-0.66743 0.54168,-1.2091 1.2091,-1.2091 0.66743,0 1.2091,0.54167 1.2091,1.2091 0,0.66742 -0.54167,1.2091 -1.2091,1.2091 z m 6.98593,24.18192 h -4.70207 v -4.70206 h 4.70207 z m 0,-9.53848 h -4.70207 v -4.29903 h 4.70207 z m 0,-9.1353 h -4.70207 v -4.29904 h 4.70207 z m 2.4182,22.30109 c -0.66742,0 -1.2091,-0.54154 -1.2091,-1.2091 0,-0.66729 0.54168,-1.20911 1.2091,-1.20911 0.66743,0 1.20911,0.54182 1.20911,1.20911 0,0.66756 -0.54168,1.2091 -1.20911,1.2091 z m 0,-9.53848 c -0.66742,0 -1.2091,-0.54154 -1.2091,-1.2091 0,-0.66729 0.54168,-1.2091 1.2091,-1.2091 0.66743,0 1.20911,0.54181 1.20911,1.2091 0,0.66756 -0.54168,1.2091 -1.20911,1.2091 z m 0,-9.26965 c -0.66742,0 -1.2091,-0.54168 -1.2091,-1.2091 0,-0.66743 0.54168,-1.20911 1.2091,-1.20911 0.66743,0 1.20911,0.54168 1.20911,1.20911 0,0.66742 -0.54168,1.2091 -1.20911,1.2091 z m 0,-9.0011 c -0.66742,0 -1.2091,-0.54168 -1.2091,-1.2091 0,-0.66743 0.54168,-1.2091 1.2091,-1.2091 0.66743,0 1.20911,0.54167 1.20911,1.2091 0,0.66742 -0.54168,1.2091 -1.20911,1.2091 z m 7.12028,24.18192 h -4.70207 v -4.70206 h 4.70207 z m 0,-9.53848 h -4.70207 v -4.29903 h 4.70207 z m 0,-9.1353 h -4.70207 v -4.29904 h 4.70207 z m 2.39805,22.30015 c -0.65789,-0.0109 -1.18895,-0.54732 -1.18895,-1.20803 0,-0.66044 0.53093,-1.19714 1.18895,-1.20803 0.65802,0.0109 1.18909,0.54759 1.18909,1.20803 -1.4e-4,0.66057 -0.53107,1.19715 -1.18909,1.20803 z m 0,-9.53848 c -0.65789,-0.0109 -1.18895,-0.54732 -1.18895,-1.20803 0,-0.66043 0.53093,-1.19714 1.18895,-1.20802 0.65802,0.0109 1.18909,0.54759 1.18909,1.20802 -1.4e-4,0.66058 -0.53107,1.19715 -1.18909,1.20803 z m 0,-9.26965 c -0.65789,-0.0109 -1.18895,-0.54746 -1.18895,-1.20816 0,-0.66058 0.53093,-1.19728 1.18895,-1.20817 0.65802,0.0109 1.18909,0.54759 1.18909,1.20817 -1.4e-4,0.66057 -0.53107,1.19728 -1.18909,1.20816 z m 0,-9.0011 c -0.65789,-0.0109 -1.18895,-0.54745 -1.18895,-1.20816 0,-0.66058 0.53093,-1.19728 1.18895,-1.20816 0.65802,0.0109 1.18909,0.54758 1.18909,1.20816 -1.4e-4,0.66057 -0.53107,1.19728 -1.18909,1.20816 z m 7.10012,24.18286 h -4.70207 v -4.70206 h 4.70207 z m 0,-9.53848 h -4.70207 v -4.29903 h 4.70207 z m 0,-9.1353 h -4.70207 v -4.29904 h 4.70207 z m 2.41821,22.30109 c -0.66743,0 -1.20911,-0.54154 -1.20911,-1.2091 0,-0.66729 0.54168,-1.20911 1.20911,-1.20911 0.66742,0 1.2091,0.54182 1.2091,1.20911 0,0.66756 -0.54168,1.2091 -1.2091,1.2091 z m 0,-9.53848 c -0.66743,0 -1.20911,-0.54154 -1.20911,-1.2091 0,-0.66729 0.54168,-1.2091 1.20911,-1.2091 0.66742,0 1.2091,0.54181 1.2091,1.2091 0,0.66756 -0.54168,1.2091 -1.2091,1.2091 z m 0,-9.26965 c -0.66743,0 -1.20911,-0.54168 -1.20911,-1.2091 0,-0.66743 0.54168,-1.20911 1.20911,-1.20911 0.66742,0 1.2091,0.54168 1.2091,1.20911 0,0.66742 -0.54168,1.2091 -1.2091,1.2091 z m 0,-9.0011 c -0.66743,0 -1.20911,-0.54168 -1.20911,-1.2091 0,-0.66743 0.54168,-1.2091 1.20911,-1.2091 0.66742,0 1.2091,0.54167 1.2091,1.2091 0,0.66742 -0.54168,1.2091 -1.2091,1.2091 z m 7.12027,24.18192 h -4.70207 v -4.70206 h 4.70207 z m 0,-9.53848 h -4.70207 v -4.29903 h 4.70207 z m 0,-9.1353 h -4.70207 v -4.29904 h 4.70207 z m 2.28386,22.30109 c -0.66743,0 -1.2091,-0.54154 -1.2091,-1.2091 0,-0.66729 0.54167,-1.20911 1.2091,-1.20911 0.66742,0 1.2091,0.54182 1.2091,1.20911 0,0.66756 -0.54168,1.2091 -1.2091,1.2091 z m 0,-9.53848 c -0.66743,0 -1.2091,-0.54154 -1.2091,-1.2091 0,-0.66729 0.54167,-1.2091 1.2091,-1.2091 0.66742,0 1.2091,0.54181 1.2091,1.2091 0,0.66756 -0.54168,1.2091 -1.2091,1.2091 z m 0,-9.26965 c -0.66743,0 -1.2091,-0.54168 -1.2091,-1.2091 0,-0.66743 0.54167,-1.20911 1.2091,-1.20911 0.66742,0 1.2091,0.54168 1.2091,1.20911 0,0.66742 -0.54168,1.2091 -1.2091,1.2091 z m 0,-9.0011 c -0.66743,0 -1.2091,-0.54168 -1.2091,-1.2091 0,-0.66743 0.54167,-1.2091 1.2091,-1.2091 0.66742,0 1.2091,0.54167 1.2091,1.2091 0,0.66742 -0.54168,1.2091 -1.2091,1.2091 z"
       id="Portcullis"
       inkscape:connector-curvature="0" />
    <path
       style="font-style:normal;font-variant:normal;font-weight:normal;font-stretch:normal;font-size:40px;line-height:125%;font-family:'Myriad Pro';-inkscape-font-specification:'Myriad Pro';letter-spacing:0px;word-spacing:0px;fill:none;stroke:#4e534e;stroke-width:0.76576507;stroke-miterlimit:10;stroke-opacity:1"
       d="m 533.89368,289.39786 c -0.007,0 -0.0134,5.4e-4 -0.0201,5.4e-4 -1.81769,0 -3.29145,-1.47363 -3.29145,-3.29145"
       id="path17"
       stroke-miterlimit="10"
       inkscape:connector-curvature="0" />
    <path
       style="font-style:normal;font-variant:normal;font-weight:normal;font-stretch:normal;font-size:40px;line-height:125%;font-family:'Myriad Pro';-inkscape-font-specification:'Myriad Pro';letter-spacing:0px;word-spacing:0px;fill:none;stroke:#4e534e;stroke-width:0.76576507;stroke-miterlimit:10;stroke-opacity:1"
       d="m 533.89368,289.39786 c 1.80855,-0.0109 3.2713,-1.47981 3.2713,-3.29091 0,-1.81782 -1.47363,-3.29145 -3.29145,-3.29145 -1.81769,0 -3.29145,1.47363 -3.29145,3.29145"
       id="path19"
       stroke-miterlimit="10"
       inkscape:connector-curvature="0" />
    <line
       style="font-style:normal;font-variant:normal;font-weight:normal;font-stretch:normal;font-size:40px;line-height:125%;font-family:'Myriad Pro';-inkscape-font-specification:'Myriad Pro';letter-spacing:0px;word-spacing:0px;fill:none;stroke:#4e534e;stroke-width:0.76576507;stroke-opacity:1"
       id="line21"
       x1="532.48303"
       x2="530.58209"
       y1="286.10696"
       y2="286.10696" />
    <line
       style="font-style:normal;font-variant:normal;font-weight:normal;font-stretch:normal;font-size:40px;line-height:125%;font-family:'Myriad Pro';-inkscape-font-specification:'Myriad Pro';letter-spacing:0px;word-spacing:0px;fill:none;stroke:#4e534e;stroke-width:0.76576507;stroke-opacity:1"
       id="line23"
       x1="530.58209"
       x2="527.98248"
       y1="286.10696"
       y2="286.10696" />
    <path
       style="font-style:normal;font-variant:normal;font-weight:normal;font-stretch:normal;font-size:40px;line-height:125%;font-family:'Myriad Pro';-inkscape-font-specification:'Myriad Pro';letter-spacing:0px;word-spacing:0px;fill:none;stroke:#4e534e;stroke-width:0.76576507;stroke-miterlimit:10;stroke-opacity:1"
       d="m 533.89368,292.89136 h -1.90769 c -0.46,0 -0.83294,0.37294 -0.83294,0.83294 v 5.45439 c 0,0.46013 0.37294,0.83294 0.83294,0.83294 h 1.90769"
       id="path25"
       stroke-miterlimit="10"
       inkscape:connector-curvature="0" />
    <path
       style="font-style:normal;font-variant:normal;font-weight:normal;font-stretch:normal;font-size:40px;line-height:125%;font-family:'Myriad Pro';-inkscape-font-specification:'Myriad Pro';letter-spacing:0px;word-spacing:0px;fill:none;stroke:#4e534e;stroke-width:0.76576507;stroke-miterlimit:10;stroke-opacity:1"
       d="m 533.89368,300.01163 h 1.93457 c 0.46013,0 0.83293,-0.37281 0.83293,-0.83294 v -5.45439 c 0,-0.46 -0.3728,-0.83294 -0.83293,-0.83294 h -1.93457"
       id="path27"
       stroke-miterlimit="10"
       inkscape:connector-curvature="0" />
    <line
       style="font-style:normal;font-variant:normal;font-weight:normal;font-stretch:normal;font-size:40px;line-height:125%;font-family:'Myriad Pro';-inkscape-font-specification:'Myriad Pro';letter-spacing:0px;word-spacing:0px;fill:none;stroke:#4e534e;stroke-width:0.76576507;stroke-opacity:1"
       id="line29"
       x1="533.89368"
       x2="533.89368"
       y1="292.89136"
       y2="293.89896" />
    <line
       style="font-style:normal;font-variant:normal;font-weight:normal;font-stretch:normal;font-size:40px;line-height:125%;font-family:'Myriad Pro';-inkscape-font-specification:'Myriad Pro';letter-spacing:0px;word-spacing:0px;fill:none;stroke:#4e534e;stroke-width:0.76576507;stroke-opacity:1"
       id="line31"
       x1="533.89368"
       x2="533.89368"
       y1="292.89136"
       y2="289.39786" />
    <line
       style="font-style:normal;font-variant:normal;font-weight:normal;font-stretch:normal;font-size:40px;line-height:125%;font-family:'Myriad Pro';-inkscape-font-specification:'Myriad Pro';letter-spacing:0px;word-spacing:0px;fill:none;stroke:#4e534e;stroke-width:0.76576507;stroke-opacity:1"
       id="line33"
       x1="533.89368"
       x2="533.89368"
       y1="289.39786"
       y2="288.39081" />
    <path
       style="font-style:normal;font-variant:normal;font-weight:normal;font-stretch:normal;font-size:40px;line-height:125%;font-family:'Myriad Pro';-inkscape-font-specification:'Myriad Pro';letter-spacing:0px;word-spacing:0px;fill:none;stroke:#4e534e;stroke-width:0.76576507;stroke-miterlimit:10;stroke-opacity:1"
       d="m 533.89368,310.94729 h -1.90769 c -0.46,0 -0.83294,-0.37294 -0.83294,-0.83293 v -5.4544 c 0,-0.46 0.37294,-0.8328 0.83294,-0.8328 h 1.90769"
       id="path35"
       stroke-miterlimit="10"
       inkscape:connector-curvature="0" />
    <path
       style="font-style:normal;font-variant:normal;font-weight:normal;font-stretch:normal;font-size:40px;line-height:125%;font-family:'Myriad Pro';-inkscape-font-specification:'Myriad Pro';letter-spacing:0px;word-spacing:0px;fill:none;stroke:#4e534e;stroke-width:0.76576507;stroke-miterlimit:10;stroke-opacity:1"
       d="m 533.89368,310.94729 h 1.93457 c 0.46013,0 0.83293,-0.37294 0.83293,-0.83293 v -5.4544 c 0,-0.46 -0.3728,-0.8328 -0.83293,-0.8328 h -1.93457"
       id="path37"
       stroke-miterlimit="10"
       inkscape:connector-curvature="0" />
    <line
       style="font-style:normal;font-variant:normal;font-weight:normal;font-stretch:normal;font-size:40px;line-height:125%;font-family:'Myriad Pro';-inkscape-font-specification:'Myriad Pro';letter-spacing:0px;word-spacing:0px;fill:none;stroke:#4e534e;stroke-width:0.76576507;stroke-opacity:1"
       id="line39"
       x1="533.89368"
       x2="533.89368"
       y1="300.01163"
       y2="299.32648" />
    <line
       style="font-style:normal;font-variant:normal;font-weight:normal;font-stretch:normal;font-size:40px;line-height:125%;font-family:'Myriad Pro';-inkscape-font-specification:'Myriad Pro';letter-spacing:0px;word-spacing:0px;fill:none;stroke:#4e534e;stroke-width:0.76576507;stroke-opacity:1"
       id="line41"
       x1="533.89368"
       x2="533.89368"
       y1="300.01163"
       y2="303.82703" />
    <line
       style="font-style:normal;font-variant:normal;font-weight:normal;font-stretch:normal;font-size:40px;line-height:125%;font-family:'Myriad Pro';-inkscape-font-specification:'Myriad Pro';letter-spacing:0px;word-spacing:0px;fill:none;stroke:#4e534e;stroke-width:0.76576507;stroke-opacity:1"
       id="line43"
       x1="533.89368"
       x2="533.89368"
       y1="304.83463"
       y2="303.82703" />
    <path
       style="font-style:normal;font-variant:normal;font-weight:normal;font-stretch:normal;font-size:40px;line-height:125%;font-family:'Myriad Pro';-inkscape-font-specification:'Myriad Pro';letter-spacing:0px;word-spacing:0px;fill:none;stroke:#4e534e;stroke-width:0.76576507;stroke-miterlimit:10;stroke-opacity:1"
       d="m 533.89368,314.69551 h -1.90769 c -0.46,0 -0.83294,0.37294 -0.83294,0.83294 v 5.4544 c 0,0.46013 0.37294,0.83293 0.83294,0.83293 h 1.90769"
       id="path45"
       stroke-miterlimit="10"
       inkscape:connector-curvature="0" />
    <path
       style="font-style:normal;font-variant:normal;font-weight:normal;font-stretch:normal;font-size:40px;line-height:125%;font-family:'Myriad Pro';-inkscape-font-specification:'Myriad Pro';letter-spacing:0px;word-spacing:0px;fill:none;stroke:#4e534e;stroke-width:0.76576507;stroke-miterlimit:10;stroke-opacity:1"
       d="m 533.89368,314.69551 h 1.93457 c 0.46013,0 0.83293,0.37294 0.83293,0.83294 v 5.4544 c 0,0.46013 -0.3728,0.83293 -0.83293,0.83293 h -1.93457"
       id="path47"
       stroke-miterlimit="10"
       inkscape:connector-curvature="0" />
    <line
       style="font-style:normal;font-variant:normal;font-weight:normal;font-stretch:normal;font-size:40px;line-height:125%;font-family:'Myriad Pro';-inkscape-font-specification:'Myriad Pro';letter-spacing:0px;word-spacing:0px;fill:none;stroke:#4e534e;stroke-width:0.76576507;stroke-opacity:1"
       id="line49"
       x1="533.89368"
       x2="533.89368"
       y1="314.69553"
       y2="315.70309" />
    <line
       style="font-style:normal;font-variant:normal;font-weight:normal;font-stretch:normal;font-size:40px;line-height:125%;font-family:'Myriad Pro';-inkscape-font-specification:'Myriad Pro';letter-spacing:0px;word-spacing:0px;fill:none;stroke:#4e534e;stroke-width:0.76576507;stroke-opacity:1"
       id="line51"
       x1="533.89368"
       x2="533.89368"
       y1="314.69553"
       y2="310.9473" />
    <line
       style="font-style:normal;font-variant:normal;font-weight:normal;font-stretch:normal;font-size:40px;line-height:125%;font-family:'Myriad Pro';-inkscape-font-specification:'Myriad Pro';letter-spacing:0px;word-spacing:0px;fill:none;stroke:#4e534e;stroke-width:0.76576507;stroke-opacity:1"
       id="line53"
       x1="533.89368"
       x2="533.89368"
       y1="310.9473"
       y2="310.19498" />
    <path
       style="font-style:normal;font-variant:normal;font-weight:normal;font-stretch:normal;font-size:40px;line-height:125%;font-family:'Myriad Pro';-inkscape-font-specification:'Myriad Pro';letter-spacing:0px;word-spacing:0px;fill:none;stroke:#4e534e;stroke-width:0.76576507;stroke-miterlimit:10;stroke-opacity:1"
       d="m 533.89368,325.13464 c -0.007,0 -0.0134,-5.4e-4 -0.0201,-5.4e-4 -1.81769,0 -3.29145,1.47363 -3.29145,3.29145 0,1.81781 1.47376,3.29144 3.29145,3.29144 1.81782,0 3.29145,-1.47363 3.29145,-3.29144 0,-1.81097 -1.46275,-3.28003 -3.2713,-3.29091"
       id="path55"
       stroke-miterlimit="10"
       inkscape:connector-curvature="0" />
    <line
       style="font-style:normal;font-variant:normal;font-weight:normal;font-stretch:normal;font-size:40px;line-height:125%;font-family:'Myriad Pro';-inkscape-font-specification:'Myriad Pro';letter-spacing:0px;word-spacing:0px;fill:none;stroke:#4e534e;stroke-width:0.76576507;stroke-opacity:1"
       id="line57"
       x1="533.89368"
       x2="533.89368"
       y1="320.90225"
       y2="321.8158" />
    <line
       style="font-style:normal;font-variant:normal;font-weight:normal;font-stretch:normal;font-size:40px;line-height:125%;font-family:'Myriad Pro';-inkscape-font-specification:'Myriad Pro';letter-spacing:0px;word-spacing:0px;fill:none;stroke:#4e534e;stroke-width:0.76576507;stroke-opacity:1"
       id="line59"
       x1="533.89368"
       x2="533.89368"
       y1="325.13464"
       y2="326.41037" />
    <line
       style="font-style:normal;font-variant:normal;font-weight:normal;font-stretch:normal;font-size:40px;line-height:125%;font-family:'Myriad Pro';-inkscape-font-specification:'Myriad Pro';letter-spacing:0px;word-spacing:0px;fill:none;stroke:#4e534e;stroke-width:0.76576507;stroke-opacity:1"
       id="line61"
       x1="533.89368"
       x2="533.89368"
       y1="325.13464"
       y2="321.8158" />
    <path
       style="font-style:normal;font-variant:normal;font-weight:normal;font-stretch:normal;font-size:40px;line-height:125%;font-family:'Myriad Pro';-inkscape-font-specification:'Myriad Pro';letter-spacing:0px;word-spacing:0px;fill:none;stroke:#4e534e;stroke-width:0.76576507;stroke-opacity:1"
       d="m 479.8132,282.8155 c -1.81782,0 -3.29144,1.47363 -3.29144,3.29145 0,1.8111 1.46288,3.28003 3.27129,3.29091 0.007,0 0.0134,5.4e-4 0.0202,5.4e-4 1.81782,0 3.29145,-1.47363 3.29145,-3.29145 0,-1.81782 -1.47363,-3.29145 -3.29145,-3.29145 z"
       id="path65"
       inkscape:connector-curvature="0" />
    <line
       style="font-style:normal;font-variant:normal;font-weight:normal;font-stretch:normal;font-size:40px;line-height:125%;font-family:'Myriad Pro';-inkscape-font-specification:'Myriad Pro';letter-spacing:0px;word-spacing:0px;fill:none;stroke:#4e534e;stroke-width:0.76576507;stroke-opacity:1"
       id="line67"
       x1="483.10464"
       x2="481.20367"
       y1="286.10696"
       y2="286.10696" />
    <line
       style="font-style:normal;font-variant:normal;font-weight:normal;font-stretch:normal;font-size:40px;line-height:125%;font-family:'Myriad Pro';-inkscape-font-specification:'Myriad Pro';letter-spacing:0px;word-spacing:0px;fill:none;stroke:#4e534e;stroke-width:0.76576507;stroke-opacity:1"
       id="line69"
       x1="485.70422"
       x2="483.10464"
       y1="286.10696"
       y2="286.10696" />
    <path
       style="font-style:normal;font-variant:normal;font-weight:normal;font-stretch:normal;font-size:40px;line-height:125%;font-family:'Myriad Pro';-inkscape-font-specification:'Myriad Pro';letter-spacing:0px;word-spacing:0px;fill:none;stroke:#4e534e;stroke-width:0.76576507;stroke-opacity:1"
       d="m 481.70075,292.89136 h -1.9077 -1.93456 c -0.46,0 -0.83294,0.37294 -0.83294,0.83294 v 5.45439 c 0,0.46013 0.37294,0.83294 0.83294,0.83294 h 1.93456 1.9077 c 0.45999,0 0.83293,-0.37281 0.83293,-0.83294 v -5.45439 c 0,-0.46 -0.37294,-0.83294 -0.83293,-0.83294 z"
       id="path71"
       inkscape:connector-curvature="0" />
    <line
       style="font-style:normal;font-variant:normal;font-weight:normal;font-stretch:normal;font-size:40px;line-height:125%;font-family:'Myriad Pro';-inkscape-font-specification:'Myriad Pro';letter-spacing:0px;word-spacing:0px;fill:none;stroke:#4e534e;stroke-width:0.76576507;stroke-opacity:1"
       id="line73"
       x1="479.79306"
       x2="479.79306"
       y1="289.39786"
       y2="288.39081" />
    <line
       style="font-style:normal;font-variant:normal;font-weight:normal;font-stretch:normal;font-size:40px;line-height:125%;font-family:'Myriad Pro';-inkscape-font-specification:'Myriad Pro';letter-spacing:0px;word-spacing:0px;fill:none;stroke:#4e534e;stroke-width:0.76576507;stroke-opacity:1"
       id="line75"
       x1="479.79306"
       x2="479.79306"
       y1="289.39786"
       y2="292.89136" />
    <line
       style="font-style:normal;font-variant:normal;font-weight:normal;font-stretch:normal;font-size:40px;line-height:125%;font-family:'Myriad Pro';-inkscape-font-specification:'Myriad Pro';letter-spacing:0px;word-spacing:0px;fill:none;stroke:#4e534e;stroke-width:0.76576507;stroke-opacity:1"
       id="line77"
       x1="479.79306"
       x2="479.79306"
       y1="293.89896"
       y2="292.89136" />
    <path
       style="font-style:normal;font-variant:normal;font-weight:normal;font-stretch:normal;font-size:40px;line-height:125%;font-family:'Myriad Pro';-inkscape-font-specification:'Myriad Pro';letter-spacing:0px;word-spacing:0px;fill:none;stroke:#4e534e;stroke-width:0.76576507;stroke-opacity:1"
       d="m 481.70075,303.82702 h -1.9077 -1.93456 c -0.46,0 -0.83294,0.37281 -0.83294,0.8328 v 5.45454 c 0,0.45999 0.37294,0.83293 0.83294,0.83293 h 1.93456 1.9077 c 0.45999,0 0.83293,-0.37294 0.83293,-0.83293 v -5.4544 c 0,-0.46 -0.37294,-0.83294 -0.83293,-0.83294 z"
       id="path79"
       inkscape:connector-curvature="0" />
    <line
       style="font-style:normal;font-variant:normal;font-weight:normal;font-stretch:normal;font-size:40px;line-height:125%;font-family:'Myriad Pro';-inkscape-font-specification:'Myriad Pro';letter-spacing:0px;word-spacing:0px;fill:none;stroke:#4e534e;stroke-width:0.76576507;stroke-opacity:1"
       id="line81"
       x1="479.79306"
       x2="479.79306"
       y1="300.01163"
       y2="303.82703" />
    <line
       style="font-style:normal;font-variant:normal;font-weight:normal;font-stretch:normal;font-size:40px;line-height:125%;font-family:'Myriad Pro';-inkscape-font-specification:'Myriad Pro';letter-spacing:0px;word-spacing:0px;fill:none;stroke:#4e534e;stroke-width:0.76576507;stroke-opacity:1"
       id="line83"
       x1="479.79306"
       x2="479.79306"
       y1="303.82703"
       y2="304.83463" />
    <line
       style="font-style:normal;font-variant:normal;font-weight:normal;font-stretch:normal;font-size:40px;line-height:125%;font-family:'Myriad Pro';-inkscape-font-specification:'Myriad Pro';letter-spacing:0px;word-spacing:0px;fill:none;stroke:#4e534e;stroke-width:0.76576507;stroke-opacity:1"
       id="line85"
       x1="479.79306"
       x2="479.79306"
       y1="300.01163"
       y2="299.32648" />
    <path
       style="font-style:normal;font-variant:normal;font-weight:normal;font-stretch:normal;font-size:40px;line-height:125%;font-family:'Myriad Pro';-inkscape-font-specification:'Myriad Pro';letter-spacing:0px;word-spacing:0px;fill:none;stroke:#4e534e;stroke-width:0.76576507;stroke-opacity:1"
       d="m 479.79305,321.81578 h 1.9077 c 0.45999,0 0.83293,-0.3728 0.83293,-0.83293 v -5.4544 c 0,-0.46 -0.37294,-0.83294 -0.83293,-0.83294 h -1.9077"
       id="path87"
       inkscape:connector-curvature="0" />
    <path
       style="font-style:normal;font-variant:normal;font-weight:normal;font-stretch:normal;font-size:40px;line-height:125%;font-family:'Myriad Pro';-inkscape-font-specification:'Myriad Pro';letter-spacing:0px;word-spacing:0px;fill:none;stroke:#4e534e;stroke-width:0.76576507;stroke-opacity:1"
       d="m 479.79305,314.69551 h -1.93456 c -0.46,0 -0.83294,0.37294 -0.83294,0.83294 v 5.4544 c 0,0.46013 0.37294,0.83293 0.83294,0.83293 h 1.93456"
       id="path89"
       inkscape:connector-curvature="0" />
    <line
       style="font-style:normal;font-variant:normal;font-weight:normal;font-stretch:normal;font-size:40px;line-height:125%;font-family:'Myriad Pro';-inkscape-font-specification:'Myriad Pro';letter-spacing:0px;word-spacing:0px;fill:none;stroke:#4e534e;stroke-width:0.76576507;stroke-opacity:1"
       id="line91"
       x1="479.79306"
       x2="479.79306"
       y1="310.19498"
       y2="310.9473" />
    <line
       style="font-style:normal;font-variant:normal;font-weight:normal;font-stretch:normal;font-size:40px;line-height:125%;font-family:'Myriad Pro';-inkscape-font-specification:'Myriad Pro';letter-spacing:0px;word-spacing:0px;fill:none;stroke:#4e534e;stroke-width:0.76576507;stroke-opacity:1"
       id="line93"
       x1="479.79306"
       x2="479.79306"
       y1="314.69553"
       y2="310.9473" />
    <line
       style="font-style:normal;font-variant:normal;font-weight:normal;font-stretch:normal;font-size:40px;line-height:125%;font-family:'Myriad Pro';-inkscape-font-specification:'Myriad Pro';letter-spacing:0px;word-spacing:0px;fill:none;stroke:#4e534e;stroke-width:0.76576507;stroke-opacity:1"
       id="line95"
       x1="479.79306"
       x2="479.79306"
       y1="314.69553"
       y2="315.70309" />
    <path
       style="font-style:normal;font-variant:normal;font-weight:normal;font-stretch:normal;font-size:40px;line-height:125%;font-family:'Myriad Pro';-inkscape-font-specification:'Myriad Pro';letter-spacing:0px;word-spacing:0px;fill:none;stroke:#4e534e;stroke-width:0.76576507;stroke-opacity:1"
       d="m 479.79305,325.13464 c -1.80841,0.0109 -3.27129,1.47994 -3.27129,3.29091 0,1.81781 1.47362,3.29144 3.29144,3.29144 1.81782,0 3.29145,-1.47363 3.29145,-3.29144 0,-1.81782 -1.47363,-3.29145 -3.29145,-3.29145 -0.007,0 -0.0134,5.4e-4 -0.0202,5.4e-4"
       id="path97"
       inkscape:connector-curvature="0" />
    <line
       style="font-style:normal;font-variant:normal;font-weight:normal;font-stretch:normal;font-size:40px;line-height:125%;font-family:'Myriad Pro';-inkscape-font-specification:'Myriad Pro';letter-spacing:0px;word-spacing:0px;fill:none;stroke:#4e534e;stroke-width:0.76576507;stroke-opacity:1"
       id="line99"
       x1="479.79306"
       x2="479.79306"
       y1="321.8158"
       y2="325.13464" />
    <line
       style="font-style:normal;font-variant:normal;font-weight:normal;font-stretch:normal;font-size:40px;line-height:125%;font-family:'Myriad Pro';-inkscape-font-specification:'Myriad Pro';letter-spacing:0px;word-spacing:0px;fill:none;stroke:#4e534e;stroke-width:0.76576507;stroke-opacity:1"
       id="line101"
       x1="479.79306"
       x2="479.79306"
       y1="321.8158"
       y2="320.90225" />
    <line
       style="font-style:normal;font-variant:normal;font-weight:normal;font-stretch:normal;font-size:40px;line-height:125%;font-family:'Myriad Pro';-inkscape-font-specification:'Myriad Pro';letter-spacing:0px;word-spacing:0px;fill:none;stroke:#4e534e;stroke-width:0.76576507;stroke-opacity:1"
       id="line103"
       x1="479.79306"
       x2="479.79306"
       y1="325.13464"
       y2="326.41037" />
    <g
       aria-label="GATE"
       style="font-style:normal;font-variant:normal;font-weight:normal;font-stretch:normal;line-height:0%;font-family:'Times New Roman';-inkscape-font-specification:'Times New Roman';letter-spacing:0px;word-spacing:0px;fill:#4e534e;fill-opacity:1;stroke:none"
       id="text3185">
      <path
         d="m 560.04813,278.00463 h -7.24 v 4.28 h 2.4 v 6.52 c -0.2,0.08 -0.56,0.12 -1.04,0.12 -2.44,0 -4.96,-2.32 -4.96,-8.8 0,-7.04 2.84,-9.48 6.4,-9.48 1.32,0 2.32,0.24 3.08,0.6 l 0.92,-4.52 c -0.84,-0.4 -2.36,-0.8 -4.4,-0.8 -5.72,0 -11.32,4.08 -11.44,13.88 -0.08,4.64 1.16,8.64 3.48,10.88 1.8,1.8 4.12,2.68 7.2,2.68 1.96,0 4.44,-0.48 5.6,-0.96 z"
         style="font-style:normal;font-variant:normal;font-weight:bold;font-stretch:normal;font-size:40px;line-height:1.25;font-family:'Myriad Pro Cond';-inkscape-font-specification:'Myriad Pro Cond Bold';fill:#4e534e;fill-opacity:1"
         id="path4582"
         inkscape:connector-curvature="0" />
      <path
         d="m 573.11438,286.96463 1.16,6.16 h 5.08 l -5.24,-26.96 h -6.28 l -5.84,26.96 h 5.08 l 1.2,-6.16 z m -4.32,-4.08 1,-5.6 c 0.28,-1.56 0.68,-4.36 0.96,-6.16 h 0.12 c 0.24,1.8 0.6,4.48 0.88,6.12 l 0.88,5.64 z"
         style="font-style:normal;font-variant:normal;font-weight:bold;font-stretch:normal;font-size:40px;line-height:1.25;font-family:'Myriad Pro Cond';-inkscape-font-specification:'Myriad Pro Cond Bold';fill:#4e534e;fill-opacity:1"
         id="path4584"
         inkscape:connector-curvature="0" />
      <path
         d="m 583.2425,293.12463 h 5.24 v -22.12 h 4.8 v -4.84 h -14.8 v 4.84 h 4.76 z"
         style="font-style:normal;font-variant:normal;font-weight:bold;font-stretch:normal;font-size:40px;line-height:1.25;font-family:'Myriad Pro Cond';-inkscape-font-specification:'Myriad Pro Cond Bold';fill:#4e534e;fill-opacity:1"
         id="path4586"
         inkscape:connector-curvature="0" />
      <path
         d="m 607.42563,276.92463 h -6.16 v -6.2 h 6.48 v -4.56 h -11.72 v 26.96 h 12.2 v -4.56 h -6.96 v -7.28 h 6.16 z"
         style="font-style:normal;font-variant:normal;font-weight:bold;font-stretch:normal;font-size:40px;line-height:1.25;font-family:'Myriad Pro Cond';-inkscape-font-specification:'Myriad Pro Cond Bold';fill:#4e534e;fill-opacity:1"
         id="path4588"
         inkscape:connector-curvature="0" />
    </g>
    <g
       aria-label="KEEPER"
       style="font-style:normal;font-variant:normal;font-weight:normal;font-stretch:normal;line-height:0%;font-family:'Times New Roman';-inkscape-font-specification:'Times New Roman';letter-spacing:0px;word-spacing:0px;fill:#4e534e;fill-opacity:1;stroke:none"
       id="text3185-1">
      <path
         d="m 545.08813,328.12463 h 5.24 v -8.96 l 1.2,-2.2 3.92,11.16 h 5.72 l -6.12,-15.24 6.04,-11.72 h -5.76 l -3.6,8.64 c -0.44,1.16 -0.88,2.36 -1.32,3.48 h -0.08 v -12.12 h -5.24 z"
         style="font-style:normal;font-variant:normal;font-weight:bold;font-stretch:normal;font-size:40px;line-height:1.25;font-family:'Myriad Pro Cond';-inkscape-font-specification:'Myriad Pro Cond Bold';fill:#4e534e;fill-opacity:1"
         id="path4591"
         inkscape:connector-curvature="0" />
      <path
         d="m 574.8475,311.92463 h -6.16 v -6.2 h 6.48 v -4.56 h -11.72 v 26.96 h 12.2 v -4.56 h -6.96 v -7.28 h 6.16 z"
         style="font-style:normal;font-variant:normal;font-weight:bold;font-stretch:normal;font-size:40px;line-height:1.25;font-family:'Myriad Pro Cond';-inkscape-font-specification:'Myriad Pro Cond Bold';fill:#4e534e;fill-opacity:1"
         id="path4593"
         inkscape:connector-curvature="0" />
      <path
         d="m 590.62875,311.92463 h -6.16 v -6.2 h 6.48 v -4.56 h -11.72 v 26.96 h 12.2 v -4.56 h -6.96 v -7.28 h 6.16 z"
         style="font-style:normal;font-variant:normal;font-weight:bold;font-stretch:normal;font-size:40px;line-height:1.25;font-family:'Myriad Pro Cond';-inkscape-font-specification:'Myriad Pro Cond Bold';fill:#4e534e;fill-opacity:1"
         id="path4595"
         inkscape:connector-curvature="0" />
      <path
         d="m 595.01,328.12463 h 5.24 v -10.04 c 0.32,0 0.68,0 1.04,0 2.16,0 4.88,-0.8 6.56,-2.56 1.4,-1.52 2.28,-3.56 2.28,-6.48 0,-2.28 -0.72,-4.52 -2.32,-5.92 -1.76,-1.64 -4.2,-2.08 -7.32,-2.08 -2,0 -4,0.2 -5.48,0.52 z m 5.24,-22.64 c 0.32,-0.12 0.8,-0.2 1.28,-0.2 2.44,0 3.4,1.84 3.4,4.2 0,2.52 -1.2,4.4 -3.84,4.4 -0.32,0 -0.6,0 -0.84,-0.08 z"
         style="font-style:normal;font-variant:normal;font-weight:bold;font-stretch:normal;font-size:40px;line-height:1.25;font-family:'Myriad Pro Cond';-inkscape-font-specification:'Myriad Pro Cond Bold';fill:#4e534e;fill-opacity:1"
         id="path4597"
         inkscape:connector-curvature="0" />
      <path
         d="m 624.69125,311.92463 h -6.16 v -6.2 h 6.48 v -4.56 h -11.72 v 26.96 h 12.2 v -4.56 h -6.96 v -7.28 h 6.16 z"
         style="font-style:normal;font-variant:normal;font-weight:bold;font-stretch:normal;font-size:40px;line-height:1.25;font-family:'Myriad Pro Cond';-inkscape-font-specification:'Myriad Pro Cond Bold';fill:#4e534e;fill-opacity:1"
         id="path4599"
         inkscape:connector-curvature="0" />
      <path
         d="m 629.0725,328.12463 h 5.24 v -10.76 h 0.76 c 1.76,0 2.6,0.96 3.08,4.32 0.4,2.96 1,5.68 1.32,6.44 h 5.48 c -0.48,-1 -1.2,-4.32 -1.72,-7.32 -0.52,-2.88 -1.44,-4.6 -3.28,-5.32 v -0.08 c 2.76,-1.28 4.16,-3.88 4.16,-6.76 0,-2.32 -0.48,-4.12 -2.12,-5.6 -1.76,-1.6 -4.32,-2 -7.2,-2 -2,0 -4.08,0.2 -5.72,0.52 z m 5.24,-22.84 c 0.28,-0.12 0.8,-0.16 1.24,-0.16 2.36,0.08 3.28,1.72 3.28,4 0,2.36 -1.32,4.2 -3.6,4.2 h -0.92 z"
         style="font-style:normal;font-variant:normal;font-weight:bold;font-stretch:normal;font-size:40px;line-height:1.25;font-family:'Myriad Pro Cond';-inkscape-font-specification:'Myriad Pro Cond Bold';fill:#4e534e;fill-opacity:1"
         id="path4601"
         inkscape:connector-curvature="0" />
    </g>
  </g>
</svg>
